<?xml version="1.0" encoding="UTF-8"?>
<svg version="1.1" xmlns="http://www.w3.org/2000/svg" width="111" height="96">
<path d="M0 0 C36.63 0 73.26 0 111 0 C111 31.68 111 63.36 111 96 C74.37 96 37.74 96 0 96 C0 64.32 0 32.64 0 0 Z " fill="#03693F" transform="translate(0,0)"/>
<path d="M0 0 C5.1920263 -0.07495152 10.38372787 -0.12897508 15.57617188 -0.16479492 C17.33729549 -0.17974968 19.09838274 -0.20012096 20.859375 -0.22631836 C34.88042122 -0.4294642 49.73760441 -0.47498836 60.74609375 9.59765625 C68.13236483 17.68387322 70.32311046 25.87081768 70.21484375 36.61328125 C69.61421523 46.08137088 65.80164685 53.58186988 59.6875 60.6875 C53.40673898 66.09187576 46.57355091 70.50432652 38 70 C37.1276588 67.00519083 36.89170234 64.36424089 36.9375 61.25 C36.94652344 60.45078125 36.95554688 59.6515625 36.96484375 58.828125 C36.97644531 58.22484375 36.98804688 57.6215625 37 57 C37.78375 57.20625 38.5675 57.4125 39.375 57.625 C40.24125 57.74875 41.1075 57.8725 42 58 C42.66 57.34 43.32 56.68 44 56 C41.69 54.68 39.38 53.36 37 52 C37.495 51.01 37.495 51.01 38 50 C39.051875 50.515625 40.10375 51.03125 41.1875 51.5625 C44.48686703 52.97174381 46.55137791 53.37944884 50 52 C50.66 51.01 51.32 50.02 52 49 C51.34773438 48.95101562 50.69546875 48.90203125 50.0234375 48.8515625 C45.06720147 48.42757771 40.66980549 47.84334427 36 46 C36 45.34 36 44.68 36 44 C41.28 44.33 46.56 44.66 52 45 C52.66 43.68 53.32 42.36 54 41 C48.39 40.67 42.78 40.34 37 40 C37 39.34 37 38.68 37 38 C41.95 37.67 46.9 37.34 52 37 C52.33 35.35 52.66 33.7 53 32 C51.2984375 32.495 51.2984375 32.495 49.5625 33 C45.00204151 34.15847067 40.67838994 34.19493291 36 34 C36 33.34 36 32.68 36 32 C40.29 31.34 44.58 30.68 49 30 C49.33 28.68 49.66 27.36 50 26 C45.38 26.99 40.76 27.98 36 29 C36 28.34 36 27.68 36 27 C36.69867188 26.82984375 37.39734375 26.6596875 38.1171875 26.484375 C39.48230469 26.12085938 39.48230469 26.12085938 40.875 25.75 C41.77992187 25.51796875 42.68484375 25.2859375 43.6171875 25.046875 C46.48841095 24.08817019 46.48841095 24.08817019 48 20 C44.04 21.32 40.08 22.64 36 24 C36 23.34 36 22.68 36 22 C36.56589844 21.74605469 37.13179687 21.49210937 37.71484375 21.23046875 C38.44832031 20.88628906 39.18179688 20.54210937 39.9375 20.1875 C41.03384766 19.68283203 41.03384766 19.68283203 42.15234375 19.16796875 C44.33029489 18.06399866 44.33029489 18.06399866 45 15 C42.03 16.32 39.06 17.64 36 19 C36 18.34 36 17.68 36 17 C36.804375 16.525625 37.60875 16.05125 38.4375 15.5625 C41.2918076 14.20016328 41.2918076 14.20016328 42 11 C41.401875 11.515625 40.80375 12.03125 40.1875 12.5625 C39.465625 13.036875 38.74375 13.51125 38 14 C37.01 13.67 36.02 13.34 35 13 C35.99 12.34 36.98 11.68 38 11 C37.505 10.505 37.505 10.505 37 10 C36.175 10 35.35 10 34.5 10 C33.675 10 32.85 10 32 10 C31.67 9.67 31.34 9.34 31 9 C30.67 9.66 30.34 10.32 30 11 C31.32 11.66 32.64 12.32 34 13 C33.34 13.33 32.68 13.66 32 14 C29.375 12.5625 29.375 12.5625 27 11 C28.24546405 14.73639216 29.63404953 15.18756513 33 17 C32.67 17.66 32.34 18.32 32 19 C30.02 18.01 28.04 17.02 26 16 C25.67 16.99 25.34 17.98 25 19 C25.94875 19.309375 26.8975 19.61875 27.875 19.9375 C31 21 31 21 33 22 C32.67 22.66 32.34 23.32 32 24 C27.05 22.02 27.05 22.02 22 20 C22.33 21.32 22.66 22.64 23 24 C25.31315325 25.14293555 25.31315325 25.14293555 28.0625 25.75 C28.98160156 25.99234375 29.90070312 26.2346875 30.84765625 26.484375 C31.55792969 26.65453125 32.26820312 26.8246875 33 27 C32.67 27.66 32.34 28.32 32 29 C27.71 28.01 23.42 27.02 19 26 C19.33 27.32 19.66 28.64 20 30 C24.29 30.66 28.58 31.32 33 32 C33 32.66 33 33.32 33 34 C26.93107371 34.25287193 21.83799592 33.69832609 16 32 C16.33 33.65 16.66 35.3 17 37 C22.28 37.33 27.56 37.66 33 38 C33 38.66 33 39.32 33 40 C27.06 40.33 21.12 40.66 15 41 C15.66 42.32 16.32 43.64 17 45 C24.92 44.505 24.92 44.505 33 44 C32.67 44.99 32.34 45.98 32 47 C30.43883181 47.33951619 28.87598662 47.67132544 27.3125 48 C26.44238281 48.185625 25.57226562 48.37125 24.67578125 48.5625 C22.06287036 48.98972047 19.64186962 49.07616201 17 49 C17.99 50.32 18.98 51.64 20 53 C24.19469571 52.40075776 28.00999834 51.42500059 32 50 C32 50.99 32 51.98 32 53 C29.36 53.99 26.72 54.98 24 56 C26.78114056 58.33391203 26.78114056 58.33391203 29.6875 57.625 C30.450625 57.41875 31.21375 57.2125 32 57 C32.02694851 58.95825873 32.04637218 60.91662226 32.0625 62.875 C32.07410156 63.96554688 32.08570313 65.05609375 32.09765625 66.1796875 C32 69 32 69 31 71 C20.77 71 10.54 71 0 71 C0.66 69.68 1.32 68.36 2 67 C3.04021517 63.87935449 3.13903162 61.67319521 3.16113281 58.39868164 C3.17074036 57.25061539 3.1803479 56.10254913 3.19024658 54.91969299 C3.19449646 53.67904587 3.19874634 52.43839874 3.203125 51.16015625 C3.20882507 49.88651718 3.21452515 48.61287811 3.22039795 47.30064392 C3.22985067 44.60477117 3.23674641 41.90900983 3.24023438 39.21313477 C3.24572273 35.76187467 3.26976285 32.31100838 3.29820633 28.85987186 C3.3213255 25.56416315 3.32328146 22.26843472 3.328125 18.97265625 C3.3404718 17.73403336 3.3528186 16.49541046 3.36553955 15.21925354 C3.36253845 14.06803513 3.35953735 12.91681671 3.35644531 11.73071289 C3.36009094 10.71828018 3.36373657 9.70584747 3.36749268 8.66273499 C2.94524756 5.60328124 1.95051757 4.33212568 0 2 C0 1.34 0 0.68 0 0 Z " fill="#F6FCFB" transform="translate(18,12)"/>
<path d="M0 0 C0.33 1.32 0.66 2.64 1 4 C2.32 3.34 3.64 2.68 5 2 C4.67 3.32 4.34 4.64 4 6 C5.32 5.67 6.64 5.34 8 5 C7.8125 6.875 7.8125 6.875 7 9 C4.4375 10.25 4.4375 10.25 2 11 C5.38023517 11 7.83468937 10.12544378 11 9 C10.875 10.8125 10.875 10.8125 10 13 C6.9375 14.75 6.9375 14.75 4 16 C5.093125 15.67 6.18625 15.34 7.3125 15 C11 14 11 14 14 14 C13.77734375 15.890625 13.77734375 15.890625 13 18 C11.00390625 19.046875 11.00390625 19.046875 8.5625 19.75 C7.35787109 20.11351562 7.35787109 20.11351562 6.12890625 20.484375 C4 21 4 21 2 21 C2 21.66 2 22.32 2 23 C2.59167969 22.7834375 3.18335937 22.566875 3.79296875 22.34375 C11.64147627 19.57820738 11.64147627 19.57820738 16 20 C15.505 22.475 15.505 22.475 15 25 C8.565 25.495 8.565 25.495 2 26 C2 26.66 2 27.32 2 28 C10.415 27.01 10.415 27.01 19 26 C19 27.65 19 29.3 19 31 C18 32 18 32 14.62109375 32.09765625 C13.22652923 32.09098369 11.83198257 32.07902532 10.4375 32.0625 C9.72658203 32.05798828 9.01566406 32.05347656 8.28320312 32.04882812 C6.52209987 32.03700864 4.76103964 32.01907263 3 32 C2.67 32.66 2.34 33.32 2 34 C1.505 33.505 1.505 33.505 1 33 C-0.32886073 32.85613896 -1.66448587 32.77323712 -3 32.71875 C-3.804375 32.68136719 -4.60875 32.64398438 -5.4375 32.60546875 C-6.283125 32.57066406 -7.12875 32.53585938 -8 32.5 C-9.66684971 32.43139491 -11.33353774 32.35869777 -13 32.28125 C-13.7425 32.25095703 -14.485 32.22066406 -15.25 32.18945312 C-17 32 -17 32 -18 31 C-18 29.35 -18 27.7 -18 26 C-12.39 26.66 -6.78 27.32 -1 28 C-1 27.34 -1 26.68 -1 26 C-5.29 25.67 -9.58 25.34 -14 25 C-14.33 23.35 -14.66 21.7 -15 20 C-13.58297487 20.14230808 -12.1663904 20.28900746 -10.75 20.4375 C-9.56664062 20.55931641 -9.56664062 20.55931641 -8.359375 20.68359375 C-6 21 -6 21 -3.765625 21.59765625 C-3.18296875 21.73042969 -2.6003125 21.86320312 -2 22 C-1.67 21.67 -1.34 21.34 -1 21 C-4.3 20.34 -7.6 19.68 -11 19 C-11.33 17.35 -11.66 15.7 -12 14 C-8.7 14.99 -5.4 15.98 -2 17 C-3.91104638 15.08895362 -6.59560958 14.17661659 -9 13 C-8.67 11.68 -8.34 10.36 -8 9 C-6.02 9.99 -4.04 10.98 -2 12 C-3.2375 11.1028125 -3.2375 11.1028125 -4.5 10.1875 C-5.325 9.465625 -6.15 8.74375 -7 8 C-7 7.01 -7 6.02 -7 5 C-5.02 5.66 -3.04 6.32 -1 7 C-1.99 6.34 -2.98 5.68 -4 5 C-3.67 4.01 -3.34 3.02 -3 2 C-2.01 2.66 -1.02 3.32 0 4 C0 2.68 0 1.36 0 0 Z " fill="#146644" transform="translate(52,18)"/>
<path d="M0 0 C0.33 1.32 0.66 2.64 1 4 C2.32 3.34 3.64 2.68 5 2 C4.67 3.32 4.34 4.64 4 6 C5.32 5.67 6.64 5.34 8 5 C7.8125 6.875 7.8125 6.875 7 9 C4.4375 10.25 4.4375 10.25 2 11 C5.38023517 11 7.83468937 10.12544378 11 9 C10.875 10.8125 10.875 10.8125 10 13 C4.96428571 16 4.96428571 16 2 16 C1.34 18.31 0.68 20.62 0 23 C-0.33 22.34 -0.66 21.68 -1 21 C-3.34907875 20.31068656 -3.34907875 20.31068656 -6.0625 19.875 C-6.98160156 19.70742188 -7.90070312 19.53984375 -8.84765625 19.3671875 C-9.55792969 19.24601562 -10.26820312 19.12484375 -11 19 C-11.33 17.35 -11.66 15.7 -12 14 C-8.7 14.99 -5.4 15.98 -2 17 C-3.91104638 15.08895362 -6.59560958 14.17661659 -9 13 C-8.67 11.68 -8.34 10.36 -8 9 C-6.02 9.99 -4.04 10.98 -2 12 C-3.2375 11.1028125 -3.2375 11.1028125 -4.5 10.1875 C-5.7375 9.1046875 -5.7375 9.1046875 -7 8 C-7 7.01 -7 6.02 -7 5 C-5.02 5.66 -3.04 6.32 -1 7 C-1.99 6.34 -2.98 5.68 -4 5 C-3.67 4.01 -3.34 3.02 -3 2 C-2.01 2.66 -1.02 3.32 0 4 C0 2.68 0 1.36 0 0 Z " fill="#276D51" transform="translate(52,18)"/>
<path d="M0 0 C0.69738281 0.00451172 1.39476562 0.00902344 2.11328125 0.01367188 C3.82555803 0.0253998 5.53779033 0.04333347 7.25 0.0625 C6.48046875 1.984375 6.48046875 1.984375 5.25 4.0625 C0.09562929 5.80974431 -4.34248339 6.28781319 -9.75 6.0625 C-10.41 4.4125 -11.07 2.7625 -11.75 1.0625 C-7.88276369 -0.20332219 -4.01848738 -0.0493765 0 0 Z " fill="#106642" transform="translate(44.75,51.9375)"/>
<path d="M0 0 C5.77759884 -0.12036664 11.27959989 0.1679418 17 1 C16.34 2.65 15.68 4.3 15 6 C9.80790596 6.21192221 5.873261 5.5912689 1 4 C0.67 2.68 0.34 1.36 0 0 Z " fill="#116644" transform="translate(55,52)"/>
<path d="M0 0 C0.33 0.66 0.66 1.32 1 2 C1.99 2 2.98 2 4 2 C4.125 4.875 4.125 4.875 4 8 C1.33684806 10.66315194 -0.65344068 10.94426493 -4.359375 11.09765625 C-5.14828125 11.08605469 -5.9371875 11.07445312 -6.75 11.0625 C-7.54921875 11.05347656 -8.3484375 11.04445313 -9.171875 11.03515625 C-9.77515625 11.02355469 -10.3784375 11.01195312 -11 11 C-11 10.34 -11 9.68 -11 9 C-6.71 8.34 -2.42 7.68 2 7 C2.33 5.68 2.66 4.36 3 3 C-3.93 4.485 -3.93 4.485 -11 6 C-11 5.34 -11 4.68 -11 4 C-10.28972656 3.79503906 -9.57945313 3.59007812 -8.84765625 3.37890625 C-7.92855469 3.10949219 -7.00945313 2.84007812 -6.0625 2.5625 C-4.68771484 2.16224609 -4.68771484 2.16224609 -3.28515625 1.75390625 C-1.0597507 1.20973949 -1.0597507 1.20973949 0 0 Z " fill="#B9E8D5" transform="translate(65,35)"/>
<path d="M0 0 C0.33 0.99 0.66 1.98 1 3 C-0.4096347 3.70180531 -1.82807641 4.38593958 -3.25 5.0625 C-4.03890625 5.44535156 -4.8278125 5.82820313 -5.640625 6.22265625 C-8.28693339 7.094536 -9.45326014 7.07231152 -12 6 C-13.25 3.9375 -13.25 3.9375 -14 2 C-9.15758367 0.66416101 -5.06562383 -0.25328119 0 0 Z " fill="#1E694A" transform="translate(49,59)"/>
<path d="M0 0 C1.75032844 0.14183696 3.50025534 0.28863429 5.25 0.4375 C6.71179687 0.55931641 6.71179687 0.55931641 8.203125 0.68359375 C10.56461753 0.95074584 12.71901065 1.35371968 15 2 C14.3125 3.9375 14.3125 3.9375 13 6 C9.51461588 7.49373605 7.90172914 6.96888089 4.25 5.8125 C1 4 1 4 0.296875 1.88671875 C0.14992187 0.95279297 0.14992187 0.95279297 0 0 Z " fill="#116543" transform="translate(55,59)"/>
<path d="M0 0 C0.33 0.99 0.66 1.98 1 3 C0.01 4.485 0.01 4.485 -1 6 C-6.60461531 5.57910004 -11.72086547 5.08386889 -17 3 C-17 2.34 -17 1.68 -17 1 C-11.72 1.33 -6.44 1.66 -1 2 C-0.67 1.34 -0.34 0.68 0 0 Z " fill="#C9ECDD" transform="translate(71,55)"/>
<path d="M0 0 C0.66 0 1.32 0 2 0 C2.33 0.99 2.66 1.98 3 3 C3.66 3.33 4.32 3.66 5 4 C5 5.65 5 7.3 5 9 C5.66 9.33 6.32 9.66 7 10 C3.04 11.32 -0.92 12.64 -5 14 C-5 13.34 -5 12.68 -5 12 C-4.43410156 11.74605469 -3.86820313 11.49210937 -3.28515625 11.23046875 C-2.55167969 10.88628906 -1.81820312 10.54210938 -1.0625 10.1875 C-0.33160156 9.85105469 0.39929687 9.51460937 1.15234375 9.16796875 C3.33029489 8.06399866 3.33029489 8.06399866 4 5 C1.03 6.32 -1.94 7.64 -5 9 C-5 8.34 -5 7.68 -5 7 C-4.175 6.54625 -3.35 6.0925 -2.5 5.625 C-1.2625 4.820625 -1.2625 4.820625 0 4 C0 2.68 0 1.36 0 0 Z " fill="#C7F1E2" transform="translate(59,22)"/>
<path d="M0 0 C12.54 0 25.08 0 38 0 C38 0.33 38 0.66 38 1 C26.45 1 14.9 1 3 1 C2.67 1.99 2.34 2.98 2 4 C1.34 2.68 0.68 1.36 0 0 Z " fill="#DCFBEF" transform="translate(18,12)"/>
<path d="M0 0 C-0.21484375 1.890625 -0.21484375 1.890625 -1 4 C-3.06640625 5.046875 -3.06640625 5.046875 -5.5625 5.75 C-6.80193359 6.11351562 -6.80193359 6.11351562 -8.06640625 6.484375 C-9.02353516 6.73960938 -9.02353516 6.73960938 -10 7 C-10.66 6.01 -11.32 5.02 -12 4 C-10.56570999 3.32645501 -9.12742943 2.66140299 -7.6875 2 C-6.88699219 1.62875 -6.08648437 1.2575 -5.26171875 0.875 C-3 0 -3 0 0 0 Z " fill="#286E52" transform="translate(66,32)"/>
<path d="M0 0 C0.33644531 0.50144531 0.67289063 1.00289062 1.01953125 1.51953125 C0.68953125 2.17953125 0.35953125 2.83953125 0.01953125 3.51953125 C-5.59046875 2.85953125 -11.20046875 2.19953125 -16.98046875 1.51953125 C-16.98046875 0.85953125 -16.98046875 0.19953125 -16.98046875 -0.48046875 C-14.54352601 -0.72925872 -12.10808486 -0.95510279 -9.66796875 -1.16796875 C-8.6325293 -1.2772168 -8.6325293 -1.2772168 -7.57617188 -1.38867188 C-2.42372692 -1.81181953 -2.42372692 -1.81181953 0 0 Z " fill="#C8EFE0" transform="translate(71.98046875,50.48046875)"/>
<path d="M0 0 C1.29373782 0.78827746 2.58491951 1.58075116 3.875 2.375 C4.59429687 2.81585938 5.31359375 3.25671875 6.0546875 3.7109375 C8 5 8 5 10 7 C7.78023089 8.34771696 6.49852224 9.04398726 3.875 8.8125 C2 8 2 8 0 5 C-0.125 2.3125 -0.125 2.3125 0 0 Z " fill="#207150" transform="translate(54,62)"/>
<path d="M0 0 C-0.33 0.99 -0.66 1.98 -1 3 C-2.56116819 3.33951619 -4.12401338 3.67132544 -5.6875 4 C-6.99267578 4.2784375 -6.99267578 4.2784375 -8.32421875 4.5625 C-10.93712964 4.98972047 -13.35813038 5.07616201 -16 5 C-15.67 4.01 -15.34 3.02 -15 2 C-13.06302033 1.66365624 -11.12539514 1.33102835 -9.1875 1 C-7.56908203 0.7215625 -7.56908203 0.7215625 -5.91796875 0.4375 C-3 0 -3 0 0 0 Z " fill="#B8E6D6" transform="translate(51,56)"/>
<path d="M0 0 C1.41750563 0.11509661 2.83401169 0.24253658 4.25 0.375 C5.03890625 0.44460937 5.8278125 0.51421875 6.640625 0.5859375 C9.085877 1.01507113 10.84836903 1.78600638 13 3 C4.57142857 5.42857143 4.57142857 5.42857143 0 4 C0 2.68 0 1.36 0 0 Z " fill="#31795B" transform="translate(37,38)"/>
<path d="M0 0 C2.7885289 -0.22107787 5.34653181 -0.28107535 8.125 -0.1875 C8.87910156 -0.17396484 9.63320313 -0.16042969 10.41015625 -0.14648438 C12.27374127 -0.11109985 14.13695978 -0.05729167 16 0 C16 0.66 16 1.32 16 2 C10.06 2.33 4.12 2.66 -2 3 C-1.34 2.01 -0.68 1.02 0 0 Z " fill="#C4F0E0" transform="translate(35,50)"/>
<path d="M0 0 C0.042721 1.66611905 0.04063832 3.33382885 0 5 C-1 6 -1 6 -4.37890625 6.09765625 C-5.77347077 6.09098369 -7.16801743 6.07902532 -8.5625 6.0625 C-9.27341797 6.05798828 -9.98433594 6.05347656 -10.71679688 6.04882812 C-12.47790013 6.03700864 -14.23896036 6.01907263 -16 6 C-16.33 6.66 -16.66 7.32 -17 8 C-17 7.01 -17 6.02 -17 5 C-12.05 5 -7.1 5 -2 5 C-2 4.01 -2 3.02 -2 2 C-3.98 2 -5.96 2 -8 2 C-4.91190305 0.23537317 -3.76687864 0 0 0 Z " fill="#267052" transform="translate(71,44)"/>
<path d="M0 0 C0.721875 0.350625 1.44375 0.70125 2.1875 1.0625 C5.32171509 2.36564406 5.32171509 2.36564406 10 1 C10 4.96 10 8.92 10 13 C9.34 12.67 8.68 12.34 8 12 C8 9.36 8 6.72 8 4 C5.69 3.67 3.38 3.34 1 3 C0.67 2.01 0.34 1.02 0 0 Z " fill="#CCEDE1" transform="translate(40,68)"/>
<path d="M0 0 C-0.33 1.65 -0.66 3.3 -1 5 C-3.31 5 -5.62 5 -8 5 C-7.625 3.0625 -7.625 3.0625 -7 1 C-4.53721199 -0.231394 -2.7204945 -0.07159196 0 0 Z " fill="#1F694C" transform="translate(68,38)"/>
<path d="M0 0 C0.66 0.33 1.32 0.66 2 1 C2 2.32 2 3.64 2 5 C5.3 5.99 8.6 6.98 12 8 C11.67 8.66 11.34 9.32 11 10 C6.71 9.01 2.42 8.02 -2 7 C-2.33 7.66 -2.66 8.32 -3 9 C-3 8.01 -3 7.02 -3 6 C-2.34 5.67 -1.68 5.34 -1 5 C-0.34444881 2.47266765 -0.34444881 2.47266765 0 0 Z " fill="#B8E3D3" transform="translate(39,31)"/>
<path d="M0 0 C1.1328125 3.6953125 1.1328125 3.6953125 -0.0625 6.4375 C-2.41281398 9.54597978 -4.92708017 11.60995125 -8 14 C-8.66 13.67 -9.32 13.34 -10 13 C-9.278125 12.34 -8.55625 11.68 -7.8125 11 C-4.54311134 7.75863467 -2.3069961 3.95625289 0 0 Z " fill="#2C7255" transform="translate(84,62)"/>
<path d="M0 0 C0 0.66 0 1.32 0 2 C-5.12583611 2.10251672 -9.94997778 2.03590199 -15 1 C-10.38887924 -1.95111729 -5.09151669 -1.62928534 0 0 Z " fill="#AEE1CD" transform="translate(51,44)"/>
<path d="M0 0 C0.33 0.66 0.66 1.32 1 2 C1.99 2 2.98 2 4 2 C3.67 3.32 3.34 4.64 3 6 C3 5.01 3 4.02 3 3 C-3.93 4.485 -3.93 4.485 -11 6 C-11 5.34 -11 4.68 -11 4 C-10.28972656 3.79503906 -9.57945313 3.59007812 -8.84765625 3.37890625 C-7.92855469 3.10949219 -7.00945313 2.84007812 -6.0625 2.5625 C-4.68771484 2.16224609 -4.68771484 2.16224609 -3.28515625 1.75390625 C-1.0597507 1.20973949 -1.0597507 1.20973949 0 0 Z " fill="#AEDDCB" transform="translate(65,35)"/>
<path d="M0 0 C3.3 0.33 6.6 0.66 10 1 C8 5 8 5 5.625 5.9375 C2.39060303 6.01450945 1.32902796 5.15650737 -1 3 C1.64 3.33 4.28 3.66 7 4 C7 3.34 7 2.68 7 2 C4.69 1.67 2.38 1.34 0 1 C0 0.67 0 0.34 0 0 Z " fill="#296C50" transform="translate(60,60)"/>
<path d="M0 0 C0 0.99 0 1.98 0 3 C-4.62 3 -9.24 3 -14 3 C-13.67 2.34 -13.34 1.68 -13 1 C-10.8203125 0.5859375 -10.8203125 0.5859375 -8.125 0.375 C-7.24070312 0.30023438 -6.35640625 0.22546875 -5.4453125 0.1484375 C-3.63287027 0.03841705 -1.81577843 0 0 0 Z " fill="#08643F" transform="translate(69,46)"/>
<path d="M0 0 C3.96 1.32 7.92 2.64 12 4 C11.01 4.99 10.02 5.98 9 7 C6.03 5.35 3.06 3.7 0 2 C0 1.34 0 0.68 0 0 Z " fill="#C6EFE1" transform="translate(55,62)"/>
<path d="M0 0 C1.75570312 0.01353516 1.75570312 0.01353516 3.546875 0.02734375 C4.43890625 0.03894531 5.3309375 0.05054688 6.25 0.0625 C6.25 0.3925 6.25 0.7225 6.25 1.0625 C1.63 1.3925 -2.99 1.7225 -7.75 2.0625 C-7.42 3.3825 -7.09 4.7025 -6.75 6.0625 C-7.74 5.7325 -8.73 5.4025 -9.75 5.0625 C-10.4375 3 -10.4375 3 -10.75 1.0625 C-7.14006828 -0.07230527 -3.7657673 -0.03765767 0 0 Z " fill="#39795F" transform="translate(43.75,51.9375)"/>
<path d="M0 0 C-0.0625 1.8125 -0.0625 1.8125 -1 4 C-4.5625 5.75 -4.5625 5.75 -8 7 C-8 5.68 -8 4.36 -8 3 C-2.25 0 -2.25 0 0 0 Z " fill="#307056" transform="translate(63,27)"/>
<path d="M0 0 C2.31 0.33 4.62 0.66 7 1 C6.67 1.66 6.34 2.32 6 3 C4.68 3 3.36 3 2 3 C2 5.97 2 8.94 2 12 C-0.13586678 8.79619983 -0.23132175 7.98060033 -0.125 4.3125 C-0.10695312 3.50425781 -0.08890625 2.69601563 -0.0703125 1.86328125 C-0.04710937 1.24839844 -0.02390625 0.63351563 0 0 Z " fill="#CAEDE0" transform="translate(55,69)"/>
<path d="M0 0 C0.33 0.99 0.66 1.98 1 3 C-3.455 4.485 -3.455 4.485 -8 6 C-8.66 5.34 -9.32 4.68 -10 4 C-6.7 2.68 -3.4 1.36 0 0 Z " fill="#BCEDDB" transform="translate(49,62)"/>
<path d="M0 0 C2.9375 0.8125 2.9375 0.8125 6 2 C6.33 2.99 6.66 3.98 7 5 C5.02 5 3.04 5 1 5 C0.67 3.35 0.34 1.7 0 0 Z " fill="#1D6448" transform="translate(40,32)"/>
<path d="M0 0 C0.04125 0.61875 0.0825 1.2375 0.125 1.875 C0.41375 2.57625 0.7025 3.2775 1 4 C3.91666667 5.25 3.91666667 5.25 7 6 C7.66 6.33 8.32 6.66 9 7 C8.67 7.66 8.34 8.32 8 9 C5.36 8.01 2.72 7.02 0 6 C0 4.02 0 2.04 0 0 Z " fill="#B1E2D0" transform="translate(42,27)"/>
<path d="M0 0 C0.66 0.33 1.32 0.66 2 1 C1.67 1.33 1.34 1.66 1 2 C1.99 2.66 2.98 3.32 4 4 C2.25 4.6875 2.25 4.6875 0 5 C-2.25 3.5625 -2.25 3.5625 -4 2 C-2.125 0.9375 -2.125 0.9375 0 0 Z " fill="#336F58" transform="translate(45,66)"/>
<path d="M0 0 C2.97 0.33 5.94 0.66 9 1 C5.77208445 3.1519437 4.71599191 3.20086443 1 3 C0.67 2.01 0.34 1.02 0 0 Z " fill="#9BD2BD" transform="translate(54,56)"/>
<path d="M0 0 C3.465 1.485 3.465 1.485 7 3 C6.34 3.66 5.68 4.32 5 5 C3.68 5 2.36 5 1 5 C0.67 3.35 0.34 1.7 0 0 Z " fill="#1D6348" transform="translate(57,65)"/>
<path d="M0 0 C3.96 0.33 7.92 0.66 12 1 C12 1.33 12 1.66 12 2 C7.38 2.33 2.76 2.66 -2 3 C-1.34 2.01 -0.68 1.02 0 0 Z " fill="#D7F7EF" transform="translate(35,50)"/>
<path d="M0 0 C0 1.65 0 3.3 0 5 C-0.66 5 -1.32 5 -2 5 C-2 4.01 -2 3.02 -2 2 C-3.98 2 -5.96 2 -8 2 C-4.91190305 0.23537317 -3.76687864 0 0 0 Z " fill="#3A775F" transform="translate(71,44)"/>
<path d="M0 0 C2.475 0.495 2.475 0.495 5 1 C4.67 1.99 4.34 2.98 4 4 C2.68 4 1.36 4 0 4 C0 2.68 0 1.36 0 0 Z " fill="#166244" transform="translate(37,38)"/>
<path d="M0 0 C2.45234885 0.98093954 3.7809268 1.68703828 5.3125 3.875 C6.12082372 6.37345514 5.71847013 7.52928976 5 10 C3.33333333 6.66666667 1.66666667 3.33333333 0 0 Z " fill="#286D51" transform="translate(81,25)"/>
<path d="M0 0 C-0.25 1.875 -0.25 1.875 -1 4 C-3.0625 5.25 -3.0625 5.25 -5 6 C-5 5.34 -5 4.68 -5 4 C-5.66 3.67 -6.32 3.34 -7 3 C-2.25 0 -2.25 0 0 0 Z " fill="#316D55" transform="translate(60,23)"/>
<path d="M0 0 C0.99 0 1.98 0 3 0 C2.34 1.65 1.68 3.3 1 5 C-1.31 5 -3.62 5 -6 5 C-6 4.67 -6 4.34 -6 4 C-4.02 4 -2.04 4 0 4 C0 2.68 0 1.36 0 0 Z " fill="#27674D" transform="translate(69,53)"/>
</svg>
